{"title":"Terror Inside 2008 DVDRip Xvid LKRG","uid":6531363,"size":806300019,"categoryP":"video","categoryS":"movies","magnet":"?xt=urn:btih:9fc81235543be3a6550b7d4b42af2a01bf1d425a&amp;dn=Terror+Inside+2008+DVDRip+Xvid+LKRG&amp;tr=udp%3A%2F%2Ftracker.openbittorrent.com%3A80&amp;tr=udp%3A%2F%2Fopen.demonii.com%3A1337&amp;tr=udp%3A%2F%2Ftracker.coppersurfer.tk%3A6969&amp;tr=udp%3A%2F%2Fexodus.desync.com%3A6969","seeders":1,"leechers":0,"uploader":".BONE.","files":2,"time":1310364643,"description":"\nPLOT\n\nIn the smallest of Florida towns a lone well driller, Joe, works gathering\ngeological samples for a university study. Unknowingly, Joe unearths more than just primordial\nmuck from deep below the swamp. A strange oozing liquid, is absorbed into Joe's skin and slowly\ntransposes his sense of pain and pleasure. Unaware that he is now a victim and carrier of a\nhorrible virus, Joe lingers in town a few extra days to woo the town's pretty diner waitress,\nMaria. Allen, a weekly town visitor and long time suitor of Maria's, is unaware of Joe's\nromantic interest. When Allen's frequent visits to see Maria are delayed by work, Allen must\nmake a final decision to quit his job and propose to Maria or break off their relationship.\nWhen Allen makes the decision to move to Ochopee and marry Maria he arrives to find the town a\nchanged place.\n &lt;a href=&quot;\nhttp://www.imdb.com/title/tt0926341/&quot; rel=&quot;nofollow&quot; target=&quot;_NEW&quot;&gt;\nhttp://www.imdb.com/title/tt0926341/&lt;/a&gt;\n\nEncoded By .......: BigPerm1828\nRuntime ..........: 1h 25mn\nFile Size ........: 769 MB\nResolution .......: 704x396\nIMDb URL .........: http://www.imdb.com/title/tt0926341/\nGenre ............: Thriller\nLanguage .........: English\nVideo\nID : 0\nFormat : MPEG-4 Visual\nFormat profile : Advanced Simple@L5\nFormat settings, BVOP : Yes\nFormat settings, QPel : No\nFormat settings, GMC : No warppoints\nFormat settings, Matrix : Default (H.263)\nCodec ID : XVID\nCodec ID/Hint : XviD\nDuration : 1h 25mn\nBit rate : 1 057 Kbps\nWidth : 704 pixels\nHeight : 396 pixels\nDisplay aspect ratio : 16:9\nFrame rate : 23.976 fps\nColor space : YUV\nChroma subsampling : 4:2:0\nBit depth : 8 bits\nScan type : Progressive\nCompression mode : Lossy\nBits/(Pixel*Frame) : 0.158\nStream size : 648 MiB (84%)\nWriting library : XviD 1.2.1 (UTC 2008-12-04)\n\nAudio\nID : 1\nFormat : AC-3\nFormat/Info : Audio Coding 3\nMode extension : CM (complete main)\nCodec ID : 2000\nDuration : 1h 25mn\nBit rate mode : Constant\nBit rate : 192 Kbps\nChannel(s) : 2 channels\nChannel positions : Front: L R\nSampling rate : 48.0 KHz\nBit depth : 16 bits\nCompression mode : Lossy\nVideo delay : 42ms\nStream size : 118 MiB (15%)\nAlignment : Split accross interleaves\nInterleave, duration : 500 ms (11.99 video frames)\nInterleave, preload duration : 500 ms\n &lt;a href=&quot;\nhttp://leetleech.org/images/61662178601458541157.png&quot; rel=&quot;nofollow&quot; target=&quot;_NEW&quot;&gt;\nhttp://leetleech.org/images/61662178601458541157.png&lt;/a&gt;\n &lt;a href=&quot;\nhttp://leetleech.org/images/22495668757530075695.png&quot; rel=&quot;nofollow&quot; target=&quot;_NEW&quot;&gt;\nhttp://leetleech.org/images/22495668757530075695.png&lt;/a&gt;\n &lt;a href=&quot;\nhttp://leetleech.org/images/09043794774638153199.png&quot; rel=&quot;nofollow&quot; target=&quot;_NEW&quot;&gt;\nhttp://leetleech.org/images/09043794774638153199.png&lt;/a&gt;\n &lt;a href=&quot;\nhttp://leetleech.org/images/14645317397073085678.png&quot; rel=&quot;nofollow&quot; target=&quot;_NEW&quot;&gt;\nhttp://leetleech.org/images/14645317397073085678.png&lt;/a&gt;\n &lt;a href=&quot;\nhttp://leetleech.org/images/28800533260767544030.png&quot; rel=&quot;nofollow&quot; target=&quot;_NEW&quot;&gt;\nhttp://leetleech.org/images/28800533260767544030.png&lt;/a&gt;","torrent":{"xt":"urn:btih:9fc81235543be3a6550b7d4b42af2a01bf1d425a","amp;dn":"Terror+Inside+2008+DVDRip+Xvid+LKRG","amp;tr":["udp%3A%2F%2Ftracker.openbittorrent.com%3A80","udp%3A%2F%2Fopen.demonii.com%3A1337","udp%3A%2F%2Ftracker.coppersurfer.tk%3A6969","udp%3A%2F%2Fexodus.desync.com%3A6969"],"infoHash":"9fc81235543be3a6550b7d4b42af2a01bf1d425a","infoHashBuffer":{"type":"Buffer","data":[159,200,18,53,84,59,227,166,85,11,125,75,66,175,42,1,191,29,66,90]},"announce":[],"urlList":[]}}